<svg xmlns="http://www.w3.org/2000/svg" xmlns:xlink="http://www.w3.org/1999/xlink" width="250" zoomAndPan="magnify" viewBox="0 0 187.5 187.499992" height="250" preserveAspectRatio="xMidYMid meet" version="1.0"><defs><clipPath id="6d83a9804e"><path d="M 58.269531 73 L 129.519531 73 L 129.519531 114.234375 L 58.269531 114.234375 Z M 58.269531 73 " clip-rule="nonzero"/></clipPath></defs><g clip-path="url(#6d83a9804e)"><path fill="#000000" d="M 128.984375 110.480469 C 128.125 107.644531 128.324219 103.65625 124.90625 102.523438 C 124.890625 97.929688 124.90625 93.339844 124.902344 88.75 C 126.101562 88.078125 128.363281 87.980469 128.371094 86.234375 C 127.804688 85.480469 126.875 85.171875 126.039062 84.824219 C 116.511719 81.210938 107 77.566406 97.480469 73.933594 C 94.941406 72.988281 92.039062 73 89.484375 73.914062 C 80.386719 77.351562 71.320312 80.875 62.214844 84.300781 C 60.75 84.910156 58.882812 85.195312 58.269531 86.875 C 59.121094 87.464844 60.015625 88.003906 61 88.359375 C 65.308594 89.992188 69.613281 91.632812 73.917969 93.277344 C 73.398438 95.421875 73.6875 97.847656 73.882812 100.054688 C 75.058594 103.179688 78.660156 104.320312 81.59375 105.234375 C 88.625 107.046875 96.089844 107.109375 103.210938 105.738281 C 106.308594 105.035156 109.601562 104.140625 111.925781 101.871094 C 113.976562 99.714844 113.019531 96.488281 113.1875 93.828125 C 113.207031 93.589844 113.164062 93.394531 113.082031 93.234375 C 116.027344 92.113281 118.972656 90.992188 121.917969 89.863281 C 121.921875 94.089844 121.894531 98.3125 121.910156 102.53125 C 118.695312 103.539062 118.730469 107.199219 117.957031 109.867188 C 117.480469 111.265625 117.253906 113.390625 119.03125 113.960938 C 121.875 114.222656 124.769531 114.152344 127.617188 114 C 129.195312 113.632812 129.511719 111.785156 128.984375 110.480469 Z M 110.066406 99.496094 C 108.59375 101.222656 106.265625 101.839844 104.164062 102.464844 C 97.460938 104.101562 90.359375 104.136719 83.609375 102.683594 C 81.246094 102.039062 78.53125 101.464844 76.898438 99.507812 C 76.449219 97.835938 76.761719 96.066406 76.695312 94.335938 C 80.839844 95.921875 84.988281 97.503906 89.132812 99.085938 C 91.886719 100.15625 95.066406 100.164062 97.816406 99.070312 C 101.949219 97.476562 106.085938 95.898438 110.222656 94.324219 C 110.125 96.042969 110.402344 97.796875 110.066406 99.496094 Z M 120.765625 111.140625 C 121.15625 109.273438 121.613281 107.414062 122.113281 105.578125 C 122.953125 105.539062 123.789062 105.507812 124.632812 105.476562 C 125.179688 107.347656 125.65625 109.238281 126.070312 111.140625 C 124.296875 111.132812 122.53125 111.140625 120.765625 111.140625 Z M 120.765625 111.140625 " fill-opacity="1" fill-rule="nonzero"/></g></svg>