<svg xmlns="http://www.w3.org/2000/svg" xmlns:xlink="http://www.w3.org/1999/xlink" width="250" zoomAndPan="magnify" viewBox="0 0 187.5 187.499992" height="250" preserveAspectRatio="xMidYMid meet" version="1.0"><defs><g/><clipPath id="b83e36d4aa"><path d="M 65.863281 69.246094 L 121.363281 69.246094 L 121.363281 117.996094 L 65.863281 117.996094 Z M 65.863281 69.246094 " clip-rule="nonzero"/></clipPath></defs><path fill="#ffffff" d="M 111.066406 80.867188 L 111.066406 80.738281 L 105.078125 80.738281 L 105.078125 80.867188 C 105.078125 81.910156 104.734375 82.921875 104.121094 83.769531 C 103.503906 84.621094 103.15625 85.683594 103.207031 86.828125 C 103.316406 89.386719 105.4375 91.445312 108.003906 91.480469 C 110.722656 91.519531 112.941406 89.324219 112.941406 86.613281 C 112.941406 85.554688 112.605469 84.574219 112.03125 83.777344 C 111.421875 82.925781 111.066406 81.914062 111.066406 80.867188 Z M 111.066406 80.867188 " fill-opacity="1" fill-rule="nonzero"/><path fill="#000000" d="M 108.074219 91.824219 C 108.050781 91.824219 108.023438 91.824219 108 91.824219 C 105.238281 91.785156 102.984375 89.597656 102.867188 86.84375 C 102.816406 85.65625 103.152344 84.523438 103.84375 83.566406 C 104.429688 82.761719 104.738281 81.828125 104.738281 80.867188 L 104.738281 80.738281 C 104.738281 80.550781 104.890625 80.398438 105.078125 80.398438 L 111.070312 80.398438 C 111.257812 80.398438 111.410156 80.550781 111.410156 80.738281 L 111.410156 80.867188 C 111.410156 81.824219 111.722656 82.761719 112.308594 83.578125 C 112.949219 84.46875 113.285156 85.515625 113.285156 86.613281 C 113.285156 88.019531 112.734375 89.335938 111.734375 90.324219 C 110.75 91.292969 109.453125 91.824219 108.074219 91.824219 Z M 105.414062 81.082031 C 105.375 82.109375 105.023438 83.101562 104.398438 83.96875 C 103.800781 84.796875 103.503906 85.78125 103.550781 86.8125 C 103.652344 89.207031 105.609375 91.105469 108.007812 91.136719 C 109.230469 91.15625 110.382812 90.691406 111.25 89.835938 C 112.121094 88.976562 112.601562 87.832031 112.601562 86.613281 C 112.601562 85.660156 112.308594 84.746094 111.753906 83.976562 C 111.125 83.101562 110.773438 82.105469 110.730469 81.082031 Z M 105.414062 81.082031 " fill-opacity="1" fill-rule="nonzero"/><path fill="#db8e47" d="M 112.027344 86.671875 C 112.027344 87.726562 111.617188 88.71875 110.871094 89.464844 C 110.125 90.210938 109.128906 90.625 108.074219 90.625 L 108.015625 90.621094 C 105.957031 90.59375 104.210938 88.898438 104.121094 86.84375 C 104.082031 85.945312 104.339844 85.085938 104.863281 84.359375 C 104.914062 84.292969 104.960938 84.222656 105.011719 84.152344 C 105.453125 83.496094 106.382812 83.363281 106.957031 83.910156 C 106.976562 83.925781 106.992188 83.941406 107.007812 83.957031 C 107.363281 84.332031 107.691406 84.746094 108.125 85.035156 C 108.734375 85.445312 109.53125 85.5625 110.234375 85.351562 C 110.273438 85.339844 110.3125 85.328125 110.351562 85.3125 C 111.113281 85.039062 111.949219 85.53125 112.015625 86.335938 C 112.023438 86.449219 112.027344 86.558594 112.027344 86.671875 Z M 112.027344 86.671875 " fill-opacity="1" fill-rule="nonzero"/><path fill="#ffffff" d="M 111.707031 80.097656 C 111.707031 80.273438 111.636719 80.433594 111.519531 80.550781 C 111.402344 80.664062 111.242188 80.738281 111.066406 80.738281 C 111.066406 80.738281 111.066406 80.738281 111.0625 80.738281 L 105.078125 80.738281 C 104.722656 80.738281 104.433594 80.449219 104.433594 80.097656 C 104.433594 79.917969 104.507812 79.757812 104.625 79.640625 C 104.742188 79.523438 104.902344 79.453125 105.078125 79.453125 L 111.0625 79.453125 C 111.421875 79.453125 111.707031 79.738281 111.707031 80.097656 Z M 111.707031 80.097656 " fill-opacity="1" fill-rule="nonzero"/><path fill="#000000" d="M 105.082031 81.082031 C 104.535156 81.078125 104.097656 80.636719 104.097656 80.097656 C 104.097656 79.832031 104.199219 79.585938 104.382812 79.398438 C 104.570312 79.214844 104.820312 79.109375 105.082031 79.109375 L 111.066406 79.109375 C 111.609375 79.109375 112.050781 79.550781 112.050781 80.097656 C 112.050781 80.359375 111.945312 80.609375 111.761719 80.792969 C 111.578125 80.976562 111.332031 81.078125 111.074219 81.082031 Z M 105.082031 79.792969 C 105 79.792969 104.925781 79.828125 104.867188 79.882812 C 104.8125 79.941406 104.78125 80.015625 104.78125 80.097656 C 104.78125 80.261719 104.914062 80.394531 105.082031 80.394531 L 111.066406 80.394531 C 111.167969 80.394531 111.238281 80.347656 111.277344 80.308594 C 111.335938 80.253906 111.367188 80.175781 111.367188 80.097656 C 111.367188 79.929688 111.234375 79.792969 111.066406 79.792969 Z M 105.082031 79.792969 " fill-opacity="1" fill-rule="nonzero"/><path fill="#ffffff" d="M 111.433594 77.5 C 111.433594 77.675781 111.367188 77.835938 111.261719 77.953125 C 111.152344 78.070312 111.003906 78.140625 110.839844 78.140625 L 105.308594 78.140625 C 104.980469 78.140625 104.714844 77.855469 104.714844 77.5 C 104.714844 77.320312 104.777344 77.160156 104.890625 77.042969 C 104.996094 76.929688 105.144531 76.855469 105.308594 76.855469 L 110.839844 76.855469 C 111.167969 76.855469 111.433594 77.144531 111.433594 77.5 Z M 111.433594 77.5 " fill-opacity="1" fill-rule="nonzero"/><path fill="#000000" d="M 110.839844 78.484375 L 105.304688 78.484375 C 104.789062 78.484375 104.371094 78.042969 104.371094 77.5 C 104.371094 77.242188 104.464844 76.996094 104.636719 76.808594 C 104.8125 76.617188 105.050781 76.511719 105.304688 76.511719 L 110.839844 76.511719 C 111.355469 76.511719 111.773438 76.957031 111.773438 77.5 C 111.773438 77.757812 111.679688 78.003906 111.507812 78.1875 C 111.335938 78.378906 111.09375 78.484375 110.839844 78.484375 Z M 105.304688 77.199219 C 105.222656 77.199219 105.164062 77.246094 105.140625 77.277344 C 105.085938 77.335938 105.054688 77.414062 105.054688 77.5 C 105.054688 77.660156 105.167969 77.800781 105.304688 77.800781 L 110.839844 77.800781 C 110.917969 77.800781 110.972656 77.757812 111.007812 77.722656 C 111.058594 77.664062 111.089844 77.582031 111.089844 77.5 C 111.089844 77.332031 110.976562 77.199219 110.839844 77.199219 Z M 105.304688 77.199219 " fill-opacity="1" fill-rule="nonzero"/><path fill="#ffffff" d="M 111.226562 74.855469 L 111.226562 74.945312 C 111.226562 75.277344 110.957031 75.542969 110.628906 75.542969 L 105.515625 75.542969 C 105.1875 75.542969 104.917969 75.277344 104.917969 74.945312 L 104.917969 74.855469 C 104.917969 74.527344 105.1875 74.257812 105.515625 74.257812 L 110.628906 74.257812 C 110.960938 74.257812 111.226562 74.527344 111.226562 74.855469 Z M 111.226562 74.855469 " fill-opacity="1" fill-rule="nonzero"/><path fill="#000000" d="M 110.628906 75.886719 L 110.277344 75.886719 C 110.265625 75.886719 110.257812 75.886719 110.246094 75.886719 L 105.898438 75.886719 C 105.886719 75.886719 105.875 75.886719 105.867188 75.886719 L 105.515625 75.886719 C 105 75.886719 104.578125 75.464844 104.578125 74.945312 L 104.578125 74.855469 C 104.578125 74.339844 105 73.917969 105.515625 73.917969 L 110.628906 73.917969 C 111.144531 73.917969 111.570312 74.339844 111.570312 74.855469 L 111.570312 74.945312 C 111.570312 75.464844 111.148438 75.886719 110.628906 75.886719 Z M 110.308594 75.203125 L 110.628906 75.203125 C 110.769531 75.203125 110.886719 75.085938 110.886719 74.945312 L 110.886719 74.855469 C 110.886719 74.714844 110.769531 74.601562 110.628906 74.601562 L 105.519531 74.601562 C 105.378906 74.601562 105.261719 74.714844 105.261719 74.855469 L 105.261719 74.945312 C 105.261719 75.085938 105.378906 75.203125 105.519531 75.203125 L 105.835938 75.203125 C 105.847656 75.199219 105.859375 75.199219 105.867188 75.199219 L 110.28125 75.199219 C 110.289062 75.199219 110.296875 75.203125 110.308594 75.203125 Z M 110.308594 75.203125 " fill-opacity="1" fill-rule="nonzero"/><path fill="#000000" d="M 110.277344 75.886719 L 105.867188 75.886719 C 105.675781 75.886719 105.523438 75.734375 105.523438 75.542969 C 105.523438 75.355469 105.675781 75.199219 105.867188 75.199219 L 110.277344 75.199219 C 110.46875 75.199219 110.621094 75.355469 110.621094 75.542969 C 110.621094 75.734375 110.46875 75.886719 110.277344 75.886719 Z M 110.277344 75.886719 " fill-opacity="1" fill-rule="nonzero"/><path fill="#ffffff" d="M 105.867188 75.542969 L 110.277344 75.542969 L 110.277344 76.855469 L 105.867188 76.855469 Z M 105.867188 75.542969 " fill-opacity="1" fill-rule="nonzero"/><path fill="#000000" d="M 110.277344 77.199219 L 105.867188 77.199219 C 105.675781 77.199219 105.523438 77.042969 105.523438 76.855469 L 105.523438 75.542969 C 105.523438 75.355469 105.675781 75.203125 105.867188 75.203125 L 110.277344 75.203125 C 110.46875 75.203125 110.621094 75.355469 110.621094 75.542969 L 110.621094 76.855469 C 110.621094 77.042969 110.46875 77.199219 110.277344 77.199219 Z M 106.210938 76.511719 L 109.9375 76.511719 L 109.9375 75.886719 L 106.210938 75.886719 Z M 106.210938 76.511719 " fill-opacity="1" fill-rule="nonzero"/><path fill="#000000" d="M 110.277344 75.886719 L 105.867188 75.886719 C 105.675781 75.886719 105.523438 75.734375 105.523438 75.542969 C 105.523438 75.355469 105.675781 75.199219 105.867188 75.199219 L 110.277344 75.199219 C 110.46875 75.199219 110.621094 75.355469 110.621094 75.542969 C 110.621094 75.734375 110.46875 75.886719 110.277344 75.886719 Z M 110.277344 75.886719 " fill-opacity="1" fill-rule="nonzero"/><path fill="#ffffff" d="M 105.648438 78.140625 L 110.496094 78.140625 L 110.496094 79.453125 L 105.648438 79.453125 Z M 105.648438 78.140625 " fill-opacity="1" fill-rule="nonzero"/><path fill="#000000" d="M 110.496094 79.792969 L 105.648438 79.792969 C 105.460938 79.792969 105.304688 79.640625 105.304688 79.453125 L 105.304688 78.140625 C 105.304688 77.953125 105.460938 77.800781 105.648438 77.800781 L 110.496094 77.800781 C 110.683594 77.800781 110.839844 77.953125 110.839844 78.140625 L 110.839844 79.453125 C 110.839844 79.640625 110.683594 79.792969 110.496094 79.792969 Z M 105.992188 79.109375 L 110.15625 79.109375 L 110.15625 78.484375 L 105.992188 78.484375 Z M 105.992188 79.109375 " fill-opacity="1" fill-rule="nonzero"/><path fill="#ffffff" d="M 109.496094 73.890625 L 109.496094 74.257812 L 106.734375 74.257812 L 106.734375 73.890625 C 106.734375 73.125 107.351562 72.640625 108.117188 72.640625 C 108.496094 72.640625 108.84375 72.761719 109.09375 72.980469 C 109.34375 73.195312 109.496094 73.507812 109.496094 73.890625 Z M 109.496094 73.890625 " fill-opacity="1" fill-rule="nonzero"/><path fill="#000000" d="M 109.496094 74.601562 L 106.734375 74.601562 C 106.542969 74.601562 106.390625 74.449219 106.390625 74.257812 L 106.390625 73.890625 C 106.390625 72.96875 107.117188 72.296875 108.117188 72.296875 C 108.574219 72.296875 109.003906 72.449219 109.316406 72.71875 C 109.652344 73.011719 109.839844 73.425781 109.839844 73.890625 L 109.839844 74.257812 C 109.839844 74.449219 109.6875 74.601562 109.496094 74.601562 Z M 107.074219 73.917969 L 109.15625 73.917969 L 109.15625 73.890625 C 109.15625 73.625 109.054688 73.398438 108.867188 73.238281 C 108.679688 73.074219 108.410156 72.984375 108.117188 72.984375 C 107.613281 72.984375 107.074219 73.265625 107.074219 73.890625 Z M 107.074219 73.917969 " fill-opacity="1" fill-rule="nonzero"/><path fill="#db8e47" d="M 108.464844 96.160156 C 108.277344 96.160156 108.125 96.003906 108.125 95.816406 L 108.125 93.289062 C 108.125 93.101562 108.277344 92.949219 108.464844 92.949219 C 108.65625 92.949219 108.808594 93.101562 108.808594 93.289062 L 108.808594 95.816406 C 108.808594 96.003906 108.65625 96.160156 108.464844 96.160156 Z M 108.464844 96.160156 " fill-opacity="1" fill-rule="nonzero"/><path fill="#db8e47" d="M 101.550781 93.636719 C 101.464844 93.636719 101.378906 93.605469 101.308594 93.539062 C 101.175781 93.402344 101.175781 93.1875 101.308594 93.054688 L 103.097656 91.269531 C 103.230469 91.132812 103.445312 91.132812 103.582031 91.269531 C 103.714844 91.402344 103.714844 91.617188 103.582031 91.753906 L 101.792969 93.539062 C 101.726562 93.605469 101.640625 93.636719 101.550781 93.636719 Z M 101.550781 93.636719 " fill-opacity="1" fill-rule="nonzero"/><path fill="#db8e47" d="M 100.972656 86.9375 C 100.972656 86.9375 100.96875 86.9375 100.96875 86.9375 L 98.445312 86.925781 C 98.253906 86.925781 98.101562 86.773438 98.101562 86.582031 C 98.105469 86.394531 98.253906 86.242188 98.445312 86.242188 L 100.972656 86.253906 C 101.160156 86.253906 101.316406 86.410156 101.3125 86.597656 C 101.3125 86.785156 101.160156 86.9375 100.972656 86.9375 Z M 100.972656 86.9375 " fill-opacity="1" fill-rule="nonzero"/><path fill="#db8e47" d="M 114.457031 93.636719 C 114.367188 93.636719 114.28125 93.605469 114.210938 93.539062 L 112.425781 91.753906 C 112.292969 91.617188 112.292969 91.402344 112.425781 91.269531 C 112.5625 91.132812 112.777344 91.132812 112.910156 91.269531 L 114.699219 93.054688 C 114.832031 93.1875 114.832031 93.402344 114.699219 93.539062 C 114.628906 93.605469 114.542969 93.636719 114.457031 93.636719 Z M 114.457031 93.636719 " fill-opacity="1" fill-rule="nonzero"/><path fill="#db8e47" d="M 115.035156 86.9375 C 114.847656 86.9375 114.695312 86.785156 114.695312 86.597656 C 114.691406 86.410156 114.84375 86.253906 115.035156 86.253906 L 117.5625 86.242188 C 117.75 86.242188 117.902344 86.394531 117.90625 86.582031 C 117.90625 86.773438 117.753906 86.925781 117.5625 86.925781 L 115.039062 86.9375 C 115.039062 86.9375 115.035156 86.9375 115.035156 86.9375 Z M 115.035156 86.9375 " fill-opacity="1" fill-rule="nonzero"/><g clip-path="url(#b83e36d4aa)"><path fill="#000000" d="M 117.167969 117.988281 L 70.0625 117.988281 C 67.753906 117.988281 65.878906 116.113281 65.878906 113.808594 L 65.878906 81.46875 C 65.878906 79.164062 67.757812 77.289062 70.0625 77.289062 L 101.140625 77.289062 C 101.328125 77.289062 101.480469 77.441406 101.480469 77.632812 C 101.480469 77.820312 101.328125 77.972656 101.140625 77.972656 L 70.0625 77.972656 C 68.132812 77.972656 66.566406 79.542969 66.566406 81.46875 L 66.566406 113.808594 C 66.566406 115.734375 68.132812 117.300781 70.0625 117.300781 L 117.164062 117.300781 C 119.09375 117.300781 120.664062 115.734375 120.664062 113.808594 L 120.664062 73.417969 C 120.664062 71.492188 119.09375 69.925781 117.164062 69.925781 L 109.664062 69.925781 C 109 69.925781 108.457031 70.464844 108.457031 71.128906 L 108.457031 72.640625 C 108.457031 72.828125 108.304688 72.984375 108.117188 72.984375 C 107.925781 72.984375 107.773438 72.828125 107.773438 72.640625 L 107.773438 71.128906 C 107.773438 70.085938 108.621094 69.238281 109.664062 69.238281 L 117.164062 69.238281 C 119.472656 69.238281 121.347656 71.117188 121.347656 73.417969 L 121.347656 113.804688 C 121.347656 116.113281 119.472656 117.988281 117.167969 117.988281 Z M 117.167969 117.988281 " fill-opacity="1" fill-rule="nonzero"/></g><g fill="#000000" fill-opacity="1"><g transform="translate(73.081053, 105.754318)"><g><path d="M 2.300781 -1.378906 C 2.339844 -0.839844 2.398438 -0.28125 2.480469 0.261719 C 2.539062 0.699219 2.679688 0.800781 3.121094 0.800781 C 3.519531 0.78125 3.9375 0.78125 4.359375 0.738281 C 4.699219 0.71875 4.820312 0.601562 4.839844 0.261719 C 4.859375 0 4.839844 -0.238281 4.839844 -0.480469 C 4.679688 -2.71875 4.578125 -4.957031 4.578125 -7.199219 C 4.597656 -7.699219 4.597656 -7.699219 5.078125 -7.71875 C 6 -7.757812 6.917969 -7.839844 7.816406 -8.058594 C 8.058594 -8.117188 8.296875 -8.199219 8.496094 -8.339844 C 8.597656 -8.398438 8.679688 -8.476562 8.65625 -8.617188 C 8.636719 -8.757812 8.539062 -8.835938 8.398438 -8.859375 C 8.199219 -8.917969 8.019531 -8.859375 7.839844 -8.796875 C 6.917969 -8.476562 5.957031 -8.4375 5 -8.4375 C 4.597656 -8.4375 4.578125 -8.457031 4.597656 -8.878906 C 4.597656 -10.117188 4.699219 -11.355469 4.878906 -12.597656 C 4.917969 -12.976562 5.019531 -13.375 5.199219 -13.714844 C 5.359375 -14.035156 5.597656 -14.214844 5.957031 -14.175781 C 6.398438 -14.117188 6.816406 -14.054688 7.257812 -13.996094 C 7.957031 -13.917969 8.679688 -13.777344 9.398438 -13.816406 C 9.597656 -13.816406 9.757812 -13.855469 9.777344 -14.117188 C 9.796875 -14.335938 9.738281 -14.476562 9.519531 -14.535156 C 8.199219 -14.875 6.878906 -15.214844 5.5 -15.136719 C 3.960938 -15.035156 3.097656 -14.316406 2.71875 -12.796875 C 2.4375 -11.617188 2.359375 -10.417969 2.28125 -9.21875 C 2.238281 -8.65625 2.238281 -8.65625 1.71875 -8.558594 C 1.21875 -8.476562 0.738281 -8.296875 0.339844 -7.976562 C 0.21875 -7.898438 0.101562 -7.796875 0.140625 -7.65625 C 0.179688 -7.5 0.339844 -7.5 0.460938 -7.476562 C 0.878906 -7.417969 1.238281 -7.558594 1.621094 -7.699219 C 2.160156 -7.917969 2.179688 -7.878906 2.179688 -7.316406 C 2.179688 -6.339844 2.179688 -5.359375 2.179688 -4.320312 C 2.160156 -3.378906 2.238281 -2.378906 2.300781 -1.378906 Z M 2.300781 -1.378906 "/></g></g></g><g fill="#000000" fill-opacity="1"><g transform="translate(82.457357, 105.754318)"><g><path d="M 10.71875 -5.597656 C 10.398438 -5.738281 10.335938 -5.71875 10.136719 -5.320312 C 9.699219 -4.457031 9.296875 -3.578125 8.859375 -2.738281 C 8.339844 -1.71875 7.839844 -0.699219 7.179688 0.21875 C 7.078125 0.378906 7 0.578125 6.777344 0.640625 C 6.660156 0.398438 6.660156 0.179688 6.660156 -0.0585938 C 6.636719 -0.839844 6.660156 -1.640625 6.71875 -2.417969 C 6.839844 -4.558594 6.957031 -6.679688 6.976562 -8.816406 C 6.976562 -9.058594 6.976562 -9.296875 6.917969 -9.539062 C 6.878906 -9.65625 6.839844 -9.777344 6.699219 -9.777344 C 6.136719 -9.777344 5.578125 -9.835938 5.039062 -9.65625 C 4.859375 -9.597656 4.738281 -9.578125 4.558594 -9.617188 C 4.117188 -9.71875 3.679688 -9.796875 3.21875 -9.699219 C 1.820312 -9.4375 0.960938 -8.539062 0.417969 -7.296875 C -0.0390625 -6.257812 -0.179688 -5.160156 -0.101562 -4.039062 C -0.078125 -3.5 0.0195312 -2.960938 0.238281 -2.4375 C 0.441406 -1.917969 0.839844 -1.699219 1.378906 -1.699219 C 1.820312 -1.679688 2.199219 -1.839844 2.5 -2.160156 C 2.78125 -2.480469 3.039062 -2.839844 3.257812 -3.21875 C 3.480469 -3.597656 3.699219 -3.980469 3.9375 -4.378906 C 4.078125 -4.257812 4.019531 -4.140625 4.039062 -4.039062 C 4.078125 -3.257812 4.097656 -2.460938 4.238281 -1.679688 C 4.359375 -0.820312 4.519531 0.0390625 4.9375 0.820312 C 5.5 1.859375 6.957031 2.039062 7.757812 1.160156 C 8.058594 0.839844 8.296875 0.480469 8.496094 0.078125 C 9.359375 -1.578125 10.175781 -3.277344 10.9375 -5 C 11.117188 -5.398438 11.097656 -5.4375 10.71875 -5.597656 Z M 4.558594 -8.199219 C 4.539062 -7.976562 4.5 -7.738281 4.398438 -7.539062 C 3.71875 -5.9375 2.980469 -4.378906 2.078125 -2.898438 C 1.941406 -2.679688 1.839844 -2.339844 1.519531 -2.417969 C 1.199219 -2.5 1.359375 -2.859375 1.320312 -3.097656 C 1.320312 -3.199219 1.320312 -3.320312 1.320312 -3.4375 C 1.359375 -4.878906 1.640625 -6.277344 2.417969 -7.539062 C 2.640625 -7.878906 2.878906 -8.21875 3.179688 -8.519531 C 3.339844 -8.679688 3.519531 -8.796875 3.757812 -8.859375 C 4.277344 -8.996094 4.617188 -8.738281 4.558594 -8.199219 Z M 4.558594 -8.199219 "/></g></g></g><g fill="#000000" fill-opacity="1"><g transform="translate(92.753296, 105.754318)"><g><path d="M 3.199219 -9.898438 C 3.300781 -10.078125 3.398438 -10.257812 3.558594 -10.398438 C 3.738281 -10.578125 3.917969 -10.578125 4.097656 -10.417969 C 4.339844 -10.199219 4.519531 -9.917969 4.660156 -9.636719 C 4.796875 -9.277344 4.9375 -8.9375 5.078125 -8.578125 C 5.140625 -8.417969 5.21875 -8.316406 5.398438 -8.359375 C 5.558594 -8.378906 5.699219 -8.398438 5.839844 -8.4375 C 6.039062 -8.476562 6.136719 -8.597656 6.097656 -8.796875 C 6.039062 -9.476562 5.859375 -10.136719 5.398438 -10.675781 C 4.878906 -11.277344 4.21875 -11.539062 3.4375 -11.398438 C 2.71875 -11.257812 2.140625 -10.898438 1.621094 -10.398438 C 0.859375 -9.636719 0.359375 -8.699219 0.121094 -7.65625 C -0.140625 -6.636719 -0.160156 -5.597656 -0.078125 -4.558594 C 0 -3.378906 0.238281 -2.21875 0.800781 -1.140625 C 1.058594 -0.660156 1.359375 -0.199219 1.78125 0.160156 C 3.078125 1.339844 5.039062 1.058594 5.9375 -0.441406 C 6.117188 -0.71875 6.257812 -1 6.398438 -1.300781 C 6.796875 -2.140625 7.199219 -3 7.597656 -3.859375 C 7.878906 -4.480469 8.15625 -5.117188 8.4375 -5.757812 C 8.558594 -6 8.519531 -6.160156 8.257812 -6.238281 C 8.179688 -6.277344 8.097656 -6.320312 7.996094 -6.359375 C 7.839844 -6.4375 7.71875 -6.417969 7.636719 -6.238281 C 7.597656 -6.160156 7.558594 -6.078125 7.519531 -5.976562 C 6.839844 -4.5 6.097656 -3.039062 5.339844 -1.578125 C 5.078125 -1.058594 4.757812 -0.558594 4.359375 -0.140625 C 4.078125 0.179688 3.800781 0.160156 3.578125 -0.199219 C 3.320312 -0.601562 3.140625 -1.039062 2.980469 -1.480469 C 2.480469 -2.917969 2.320312 -4.417969 2.28125 -5.417969 C 2.28125 -7.636719 2.519531 -8.757812 3.199219 -9.898438 Z M 3.199219 -9.898438 "/></g></g></g><g fill="#000000" fill-opacity="1"><g transform="translate(100.270335, 105.754318)"><g><path d="M 0.121094 -2.378906 C 0.300781 -1.339844 0.578125 -0.320312 1.078125 0.621094 C 1.320312 1.039062 1.621094 1.398438 2.097656 1.558594 C 3.320312 1.941406 4.457031 1.738281 5.199219 0.640625 C 5.320312 0.480469 5.417969 0.320312 5.5 0.160156 C 6.359375 -1.441406 6.738281 -3.199219 7.238281 -4.917969 C 7.257812 -5.019531 7.296875 -5.117188 7.21875 -5.179688 C 7.019531 -5.339844 6.777344 -5.417969 6.539062 -5.398438 C 6.320312 -5.378906 6.296875 -5.179688 6.238281 -5.019531 C 5.976562 -4.257812 5.738281 -3.5 5.457031 -2.738281 C 5.078125 -1.738281 4.777344 -0.71875 4.21875 0.179688 C 4.097656 0.378906 3.980469 0.558594 3.839844 0.738281 C 3.417969 1.179688 3.160156 1.140625 2.898438 0.601562 C 2.820312 0.441406 2.757812 0.261719 2.699219 0.078125 C 2.5 -0.839844 2.320312 -1.738281 2.320312 -2.660156 C 2.28125 -4.277344 2.300781 -5.898438 2.417969 -7.519531 C 2.5 -8.976562 2.578125 -10.417969 2.757812 -11.855469 C 2.820312 -12.4375 2.820312 -12.4375 3.398438 -12.476562 C 4.957031 -12.558594 6.519531 -12.636719 8.078125 -12.738281 C 8.238281 -12.738281 8.417969 -12.777344 8.578125 -12.796875 C 8.71875 -12.816406 8.757812 -12.898438 8.777344 -13.015625 C 8.835938 -13.4375 8.757812 -13.578125 8.316406 -13.597656 C 7.839844 -13.617188 7.339844 -13.617188 6.859375 -13.636719 C 5.71875 -13.65625 4.597656 -13.535156 3.460938 -13.535156 C 2.917969 -13.515625 2.917969 -13.535156 2.960938 -14.054688 C 2.980469 -14.394531 3 -14.734375 3 -15.078125 C 3 -15.496094 2.960938 -15.535156 2.558594 -15.554688 C 2.199219 -15.574219 1.839844 -15.554688 1.480469 -15.574219 C 1.179688 -15.574219 1.039062 -15.457031 0.941406 -15.195312 C 0.761719 -14.714844 0.601562 -14.214844 0.519531 -13.714844 C 0.460938 -13.4375 0.320312 -13.316406 0.0195312 -13.296875 C -0.480469 -13.257812 -0.980469 -13.175781 -1.480469 -13.097656 C -1.839844 -13.058594 -1.898438 -12.957031 -1.898438 -12.636719 C -1.898438 -12.277344 -1.640625 -12.296875 -1.417969 -12.296875 C -1.039062 -12.277344 -0.679688 -12.277344 -0.300781 -12.296875 C 0.21875 -12.296875 0.21875 -12.296875 0.160156 -11.796875 C -0.0390625 -10.296875 -0.199219 -8.796875 -0.160156 -7.179688 C -0.238281 -5.636719 -0.140625 -4.019531 0.121094 -2.378906 Z M 0.121094 -2.378906 "/></g></g></g><g fill="#000000" fill-opacity="1"><g transform="translate(106.527861, 105.754318)"><g><path d="M 1.960938 -8.738281 C 2.480469 -7.5 3 -6.257812 3.398438 -5 C 3.617188 -4.300781 3.617188 -4.300781 2.9375 -3.980469 C 2.179688 -3.617188 1.480469 -3.199219 0.980469 -2.5 C 0.140625 -1.28125 0.578125 0.199219 1.980469 0.679688 C 3.039062 1.039062 4.058594 0.941406 5.019531 0.320312 C 5.539062 -0.0195312 5.898438 -0.5 6.058594 -1.121094 C 6.199219 -1.679688 6.257812 -2.257812 6.160156 -2.859375 C 6.097656 -3.160156 6.058594 -3.4375 6 -3.738281 C 5.898438 -4.257812 5.898438 -4.257812 6.398438 -4.457031 C 6.679688 -4.558594 6.957031 -4.679688 7.238281 -4.796875 C 7.738281 -5.058594 8.21875 -5.378906 8.65625 -5.71875 C 8.777344 -5.820312 8.917969 -5.917969 8.835938 -6.097656 C 8.738281 -6.277344 8.558594 -6.320312 8.359375 -6.277344 C 8.179688 -6.238281 8.039062 -6.136719 7.917969 -6.039062 C 7.359375 -5.660156 6.777344 -5.359375 6.160156 -5.117188 C 5.699219 -4.917969 5.679688 -4.917969 5.539062 -5.398438 C 4.957031 -7.160156 4.078125 -8.757812 3.121094 -10.316406 C 2.878906 -10.71875 2.558594 -11.058594 2.179688 -11.335938 C 1.621094 -11.757812 1.21875 -11.597656 1.058594 -10.9375 C 0.941406 -10.457031 0.839844 -9.976562 0.738281 -9.496094 C 0.101562 -6.617188 -0.441406 -3.699219 -1.398438 -0.898438 C -1.539062 -0.539062 -1.640625 -0.179688 -1.757812 0.179688 C -1.859375 0.417969 -1.757812 0.5 -1.519531 0.539062 C -1.078125 0.621094 -0.960938 0.578125 -0.761719 0.101562 C 0.160156 -2.179688 0.898438 -4.519531 1.359375 -6.917969 C 1.480469 -7.597656 1.558594 -8.277344 1.78125 -9.039062 C 1.878906 -8.878906 1.941406 -8.816406 1.960938 -8.738281 Z M 3.9375 -0.539062 C 3.679688 0.160156 3.078125 0.320312 2.5 -0.121094 C 1.941406 -0.539062 1.738281 -1.199219 2 -1.878906 C 2.28125 -2.640625 2.878906 -3.078125 3.558594 -3.4375 C 3.757812 -3.519531 3.859375 -3.4375 3.898438 -3.257812 C 4.019531 -2.738281 4.117188 -2.21875 4.117188 -1.640625 C 4.140625 -1.300781 4.078125 -0.898438 3.9375 -0.539062 Z M 3.9375 -0.539062 "/></g></g></g></svg>