<svg xmlns="http://www.w3.org/2000/svg" xmlns:xlink="http://www.w3.org/1999/xlink" width="250" zoomAndPan="magnify" viewBox="0 0 187.5 187.499992" height="250" preserveAspectRatio="xMidYMid meet" version="1.0"><defs><clipPath id="d6053552ac"><path d="M 64.371094 64.371094 L 122.871094 64.371094 L 122.871094 122.871094 L 64.371094 122.871094 Z M 64.371094 64.371094 " clip-rule="nonzero"/></clipPath></defs><path fill="#ffdb80" d="M 83.503906 76.808594 L 93.617188 66.691406 L 103.734375 76.808594 L 93.621094 86.921875 Z M 83.503906 76.808594 " fill-opacity="1" fill-rule="nonzero"/><path fill="#fc785e" d="M 114.894531 95.714844 C 114.804688 95.898438 114.714844 95.898438 114.714844 95.898438 C 114.167969 96.035156 113.300781 95.53125 112.890625 94.4375 C 112.527344 93.574219 111.617188 92.9375 110.613281 92.9375 L 110.386719 92.9375 C 109.382812 92.9375 108.472656 93.527344 108.109375 94.4375 C 107.699219 95.53125 106.832031 96.035156 106.285156 95.898438 C 106.238281 95.898438 106.148438 95.851562 106.101562 95.714844 C 105.921875 95.488281 105.875 95.03125 106.011719 94.4375 C 106.011719 94.4375 106.195312 94.121094 106.605469 94.074219 C 107.105469 94.027344 107.46875 93.574219 107.425781 93.074219 C 107.378906 92.570312 106.921875 92.207031 106.421875 92.253906 C 106.332031 92.253906 106.238281 92.296875 106.148438 92.296875 C 106.148438 92.023438 106.101562 91.84375 106.101562 91.796875 C 106.101562 91.523438 106.285156 91.296875 106.375 91.203125 C 106.605469 91.023438 106.878906 90.929688 107.195312 90.929688 L 108.199219 90.929688 L 108.335938 91.296875 C 108.472656 91.660156 108.789062 91.886719 109.199219 91.886719 L 111.84375 91.886719 C 112.164062 91.886719 112.480469 91.707031 112.664062 91.433594 L 112.9375 90.929688 L 113.800781 90.929688 C 114.394531 90.929688 114.941406 91.339844 114.941406 91.75 C 114.941406 91.84375 114.941406 92.023438 114.894531 92.296875 C 114.804688 92.296875 114.714844 92.253906 114.621094 92.253906 C 114.121094 92.207031 113.664062 92.570312 113.621094 93.074219 C 113.574219 93.574219 113.9375 94.027344 114.441406 94.074219 C 114.804688 94.121094 114.988281 94.394531 115.03125 94.4375 C 115.078125 95.03125 115.03125 95.488281 114.894531 95.714844 Z M 114.894531 95.714844 " fill-opacity="1" fill-rule="nonzero"/><path fill="#fc785e" d="M 97.035156 75.257812 L 97.035156 79.269531 L 90.203125 79.269531 L 90.203125 75.257812 L 92.253906 75.257812 C 92.527344 75.257812 92.800781 75.121094 92.980469 74.894531 L 93.390625 74.394531 L 93.894531 74.394531 L 94.300781 74.894531 C 94.484375 75.121094 94.757812 75.257812 95.03125 75.257812 Z M 97.035156 75.257812 " fill-opacity="1" fill-rule="nonzero"/><path fill="#fc785e" d="M 90.066406 110.386719 L 90.066406 112.253906 C 90.066406 112.4375 89.929688 112.574219 89.746094 112.574219 C 89.5625 112.574219 89.425781 112.4375 89.425781 112.253906 L 89.425781 110.386719 C 89.425781 110.203125 89.5625 110.066406 89.746094 110.066406 C 89.929688 110.066406 90.066406 110.203125 90.066406 110.386719 Z M 90.066406 110.386719 " fill-opacity="1" fill-rule="nonzero"/><path fill="#fc785e" d="M 97.8125 110.386719 L 97.8125 112.253906 C 97.8125 112.4375 97.675781 112.574219 97.492188 112.574219 C 97.308594 112.574219 97.171875 112.4375 97.171875 112.253906 L 97.171875 110.386719 C 97.171875 110.203125 97.308594 110.066406 97.492188 110.066406 C 97.675781 110.066406 97.8125 110.203125 97.8125 110.386719 Z M 97.8125 110.386719 " fill-opacity="1" fill-rule="nonzero"/><path fill="#ffdb80" d="M 90.269531 93.664062 L 93.652344 90.28125 L 97.035156 93.664062 L 93.652344 97.046875 Z M 90.269531 93.664062 " fill-opacity="1" fill-rule="nonzero"/><path fill="#ffdb80" d="M 83.503906 110.523438 L 93.617188 100.40625 L 103.734375 110.523438 L 93.617188 120.636719 Z M 83.503906 110.523438 " fill-opacity="1" fill-rule="nonzero"/><path fill="#e1ebf4" d="M 100.359375 93.664062 L 110.476562 83.550781 L 120.59375 93.664062 L 110.476562 103.78125 Z M 100.359375 93.664062 " fill-opacity="1" fill-rule="nonzero"/><path fill="#e1ebf4" d="M 66.644531 93.664062 L 76.761719 83.550781 L 86.878906 93.664062 L 76.761719 103.78125 Z M 66.644531 93.664062 " fill-opacity="1" fill-rule="nonzero"/><path fill="#2d4356" d="M 94.757812 77.082031 C 94.757812 77.230469 94.730469 77.378906 94.671875 77.515625 C 94.613281 77.65625 94.53125 77.777344 94.425781 77.886719 C 94.316406 77.992188 94.195312 78.074219 94.054688 78.132812 C 93.914062 78.191406 93.769531 78.21875 93.621094 78.21875 C 93.46875 78.21875 93.324219 78.191406 93.183594 78.132812 C 93.042969 78.074219 92.921875 77.992188 92.8125 77.886719 C 92.707031 77.777344 92.625 77.65625 92.566406 77.515625 C 92.507812 77.378906 92.480469 77.230469 92.480469 77.082031 C 92.480469 76.929688 92.507812 76.785156 92.566406 76.644531 C 92.625 76.503906 92.707031 76.382812 92.8125 76.273438 C 92.921875 76.167969 93.042969 76.085938 93.183594 76.027344 C 93.324219 75.96875 93.46875 75.941406 93.621094 75.941406 C 93.769531 75.941406 93.914062 75.96875 94.054688 76.027344 C 94.195312 76.085938 94.316406 76.167969 94.425781 76.273438 C 94.53125 76.382812 94.613281 76.503906 94.671875 76.644531 C 94.730469 76.785156 94.757812 76.929688 94.757812 77.082031 Z M 94.757812 77.082031 " fill-opacity="1" fill-rule="nonzero"/><path fill="#2d4356" d="M 75.394531 88.105469 L 75.394531 93.757812 C 75.394531 94.484375 75.988281 95.03125 76.671875 95.03125 L 76.851562 95.03125 C 77.582031 95.03125 78.128906 94.4375 78.128906 93.757812 L 78.128906 88.105469 C 78.128906 87.378906 77.535156 86.832031 76.851562 86.832031 L 76.671875 86.832031 C 75.988281 86.832031 75.394531 87.421875 75.394531 88.105469 Z M 75.394531 88.105469 " fill-opacity="1" fill-rule="nonzero"/><path fill="#f9edd2" d="M 103.734375 76.808594 L 102.824219 77.71875 L 93.621094 68.515625 L 84.414062 77.71875 L 83.503906 76.808594 L 93.621094 66.691406 Z M 103.734375 76.808594 " fill-opacity="0.498" fill-rule="nonzero"/><path fill="#937d4a" d="M 96.992188 94.574219 L 93.621094 97.949219 L 90.246094 94.574219 L 90.019531 92.527344 L 93.621094 96.125 L 97.308594 92.433594 Z M 96.992188 94.574219 " fill-opacity="0.4" fill-rule="nonzero"/><path fill="#f9edd2" d="M 96.992188 92.617188 L 93.621094 89.246094 L 90.246094 92.617188 L 90.292969 94.394531 L 93.621094 91.066406 L 97.265625 94.667969 Z M 96.992188 92.617188 " fill-opacity="0.498" fill-rule="nonzero"/><path fill="#9fa5aa" d="M 86.875 93.664062 L 76.761719 103.777344 L 66.648438 93.664062 L 67.558594 92.753906 L 76.761719 101.957031 L 85.964844 92.753906 Z M 86.875 93.664062 " fill-opacity="0.498" fill-rule="nonzero"/><path fill="#ffffff" d="M 86.875 93.664062 L 85.964844 94.574219 L 76.761719 85.371094 L 67.558594 94.574219 L 66.648438 93.664062 L 76.761719 83.550781 Z M 86.875 93.664062 " fill-opacity="0.498" fill-rule="nonzero"/><path fill="#937d4a" d="M 103.734375 76.808594 L 93.621094 86.921875 L 83.503906 76.808594 L 84.414062 75.894531 L 93.621094 85.097656 L 102.824219 75.894531 Z M 103.734375 76.808594 " fill-opacity="0.4" fill-rule="nonzero"/><path fill="#ffffff" d="M 120.589844 93.664062 L 119.679688 94.574219 L 110.476562 85.371094 L 101.273438 94.574219 L 100.363281 93.664062 L 110.476562 83.550781 Z M 120.589844 93.664062 " fill-opacity="0.498" fill-rule="nonzero"/><path fill="#9fa5aa" d="M 120.589844 93.664062 L 110.476562 103.777344 L 100.363281 93.664062 L 101.273438 92.753906 L 110.476562 101.957031 L 119.679688 92.753906 Z M 120.589844 93.664062 " fill-opacity="0.498" fill-rule="nonzero"/><path fill="#937d4a" d="M 103.734375 110.523438 L 93.621094 120.636719 L 83.503906 110.523438 L 84.414062 109.609375 L 93.621094 118.8125 L 102.824219 109.609375 Z M 103.734375 110.523438 " fill-opacity="0.4" fill-rule="nonzero"/><path fill="#f9edd2" d="M 103.734375 110.523438 L 102.824219 111.433594 L 93.621094 102.230469 L 84.414062 111.433594 L 83.503906 110.523438 L 93.621094 100.40625 Z M 103.734375 110.523438 " fill-opacity="0.498" fill-rule="nonzero"/><path fill="#d68751" d="M 111.34375 89.882812 L 111.25 90.066406 L 109.792969 90.066406 C 109.746094 89.972656 109.703125 89.882812 109.65625 89.792969 L 109.792969 89.5625 L 111.207031 89.5625 Z M 111.34375 89.882812 " fill-opacity="1" fill-rule="nonzero"/><path fill="#fc785e" d="M 114.894531 95.714844 C 114.804688 95.898438 114.714844 95.898438 114.714844 95.898438 C 114.167969 96.035156 113.300781 95.53125 112.890625 94.4375 C 112.527344 93.574219 111.617188 92.9375 110.613281 92.9375 L 110.386719 92.9375 C 109.382812 92.9375 108.472656 93.527344 108.109375 94.4375 C 107.699219 95.53125 106.832031 96.035156 106.285156 95.898438 C 106.238281 95.898438 106.148438 95.851562 106.101562 95.714844 C 105.921875 95.488281 105.875 95.03125 106.011719 94.4375 C 106.011719 94.4375 106.195312 94.121094 106.605469 94.074219 C 107.105469 94.027344 107.46875 93.574219 107.425781 93.074219 C 107.378906 92.570312 106.921875 92.207031 106.421875 92.253906 C 106.332031 92.253906 106.238281 92.296875 106.148438 92.296875 C 106.148438 92.023438 106.101562 91.84375 106.101562 91.796875 C 106.101562 91.523438 106.285156 91.296875 106.375 91.203125 C 106.605469 91.023438 106.878906 90.929688 107.195312 90.929688 L 108.199219 90.929688 L 108.335938 91.296875 C 108.472656 91.660156 108.789062 91.886719 109.199219 91.886719 L 111.84375 91.886719 C 112.164062 91.886719 112.480469 91.707031 112.664062 91.433594 L 112.9375 90.929688 L 113.800781 90.929688 C 114.394531 90.929688 114.941406 91.339844 114.941406 91.75 C 114.941406 91.84375 114.941406 92.023438 114.894531 92.296875 C 114.804688 92.296875 114.714844 92.253906 114.621094 92.253906 C 114.121094 92.207031 113.664062 92.570312 113.621094 93.074219 C 113.574219 93.574219 113.9375 94.027344 114.441406 94.074219 C 114.804688 94.121094 114.988281 94.394531 115.03125 94.4375 C 115.078125 95.03125 115.03125 95.488281 114.894531 95.714844 Z M 114.894531 95.714844 " fill-opacity="1" fill-rule="nonzero"/><path fill="#2d4356" d="M 98.175781 108.382812 C 97.855469 106.148438 95.941406 104.371094 93.621094 104.371094 C 91.296875 104.371094 89.335938 106.101562 89.0625 108.382812 C 88.242188 108.652344 87.605469 109.472656 87.605469 110.386719 L 87.605469 112.253906 C 87.605469 113.4375 88.5625 114.394531 89.746094 114.394531 C 90.929688 114.394531 91.886719 113.4375 91.886719 112.253906 L 91.886719 110.386719 C 91.886719 109.609375 91.476562 108.925781 90.839844 108.5625 C 91.066406 107.242188 92.207031 106.195312 93.621094 106.195312 C 95.03125 106.195312 96.171875 107.242188 96.398438 108.5625 C 95.761719 108.925781 95.351562 109.609375 95.351562 110.386719 L 95.351562 112.253906 C 95.351562 113.4375 96.308594 114.394531 97.492188 114.394531 C 98.675781 114.394531 99.632812 113.4375 99.632812 112.253906 L 99.632812 110.386719 C 99.632812 109.429688 99.039062 108.652344 98.175781 108.382812 Z M 90.066406 112.253906 C 90.066406 112.4375 89.929688 112.574219 89.746094 112.574219 C 89.5625 112.574219 89.425781 112.4375 89.425781 112.253906 L 89.425781 110.386719 C 89.425781 110.203125 89.5625 110.066406 89.746094 110.066406 C 89.929688 110.066406 90.066406 110.203125 90.066406 110.386719 Z M 97.8125 112.253906 C 97.8125 112.4375 97.675781 112.574219 97.492188 112.574219 C 97.308594 112.574219 97.171875 112.4375 97.171875 112.253906 L 97.171875 110.386719 C 97.171875 110.203125 97.308594 110.066406 97.492188 110.066406 C 97.675781 110.066406 97.8125 110.203125 97.8125 110.386719 Z M 97.8125 112.253906 " fill-opacity="1" fill-rule="nonzero"/><path fill="#fc785e" d="M 97.8125 110.386719 L 97.8125 112.253906 C 97.8125 112.4375 97.675781 112.574219 97.492188 112.574219 C 97.308594 112.574219 97.171875 112.4375 97.171875 112.253906 L 97.171875 110.386719 C 97.171875 110.203125 97.308594 110.066406 97.492188 110.066406 C 97.675781 110.066406 97.8125 110.203125 97.8125 110.386719 Z M 97.8125 110.386719 " fill-opacity="1" fill-rule="nonzero"/><path fill="#fc785e" d="M 90.066406 110.386719 L 90.066406 112.253906 C 90.066406 112.4375 89.929688 112.574219 89.746094 112.574219 C 89.5625 112.574219 89.425781 112.4375 89.425781 112.253906 L 89.425781 110.386719 C 89.425781 110.203125 89.5625 110.066406 89.746094 110.066406 C 89.929688 110.066406 90.066406 110.203125 90.066406 110.386719 Z M 90.066406 110.386719 " fill-opacity="1" fill-rule="nonzero"/><path fill="#2d4356" d="M 74.027344 93.664062 L 74.027344 91.796875 C 74.027344 91.296875 73.617188 90.886719 73.117188 90.886719 C 72.617188 90.886719 72.207031 91.296875 72.207031 91.796875 L 72.207031 93.664062 C 72.207031 95.851562 73.753906 97.71875 75.851562 98.128906 L 75.851562 101.136719 C 75.851562 101.636719 76.261719 102.046875 76.761719 102.046875 C 77.261719 102.046875 77.671875 101.636719 77.671875 101.136719 L 77.671875 98.128906 C 79.769531 97.71875 81.316406 95.851562 81.316406 93.664062 L 81.316406 91.796875 C 81.316406 91.296875 80.90625 90.886719 80.40625 90.886719 C 79.90625 90.886719 79.496094 91.296875 79.496094 91.796875 L 79.496094 93.664062 C 79.496094 95.167969 78.265625 96.398438 76.761719 96.398438 C 75.257812 96.398438 74.027344 95.167969 74.027344 93.664062 Z M 74.027344 93.664062 " fill-opacity="1" fill-rule="nonzero"/><path fill="#2d4356" d="M 116.535156 93.390625 C 116.628906 92.707031 116.671875 91.933594 116.671875 91.707031 C 116.628906 90.292969 115.304688 89.109375 113.710938 89.109375 L 113.027344 89.109375 L 112.480469 88.199219 C 112.300781 87.925781 112.027344 87.742188 111.707031 87.742188 L 109.292969 87.742188 C 108.972656 87.742188 108.652344 87.925781 108.519531 88.199219 L 107.972656 89.109375 L 107.195312 89.109375 C 106.421875 89.109375 105.738281 89.382812 105.191406 89.835938 C 104.597656 90.339844 104.28125 91.066406 104.28125 91.796875 C 104.28125 92.023438 104.371094 92.890625 104.417969 93.4375 C 104.007812 94.574219 104.007812 95.714844 104.460938 96.582031 C 104.734375 97.171875 105.238281 97.539062 105.828125 97.71875 C 107.378906 98.128906 109.0625 97.035156 109.839844 95.167969 C 109.929688 94.984375 110.15625 94.847656 110.429688 94.847656 L 110.660156 94.847656 C 110.933594 94.847656 111.160156 94.984375 111.25 95.167969 C 111.890625 96.761719 113.257812 97.8125 114.578125 97.8125 C 114.804688 97.8125 115.03125 97.765625 115.214844 97.71875 C 115.808594 97.582031 116.308594 97.171875 116.582031 96.582031 C 116.945312 95.714844 116.945312 94.53125 116.535156 93.390625 Z M 109.792969 89.5625 L 111.207031 89.5625 L 111.386719 89.882812 L 111.296875 90.066406 L 109.839844 90.066406 C 109.792969 89.972656 109.746094 89.882812 109.703125 89.792969 Z M 114.894531 95.714844 C 114.804688 95.898438 114.714844 95.898438 114.714844 95.898438 C 114.167969 96.035156 113.300781 95.53125 112.890625 94.4375 C 112.527344 93.574219 111.617188 92.9375 110.613281 92.9375 L 110.386719 92.9375 C 109.382812 92.9375 108.472656 93.527344 108.109375 94.4375 C 107.699219 95.53125 106.832031 96.035156 106.285156 95.898438 C 106.238281 95.898438 106.148438 95.851562 106.101562 95.714844 C 105.921875 95.488281 105.875 95.03125 106.011719 94.4375 C 106.011719 94.4375 106.195312 94.121094 106.605469 94.074219 C 107.105469 94.027344 107.46875 93.574219 107.425781 93.074219 C 107.378906 92.570312 106.921875 92.207031 106.421875 92.253906 C 106.332031 92.253906 106.238281 92.296875 106.148438 92.296875 C 106.148438 92.023438 106.101562 91.84375 106.101562 91.796875 C 106.101562 91.523438 106.285156 91.296875 106.375 91.203125 C 106.605469 91.023438 106.878906 90.929688 107.195312 90.929688 L 108.199219 90.929688 L 108.335938 91.296875 C 108.472656 91.660156 108.789062 91.886719 109.199219 91.886719 L 111.84375 91.886719 C 112.164062 91.886719 112.480469 91.707031 112.664062 91.433594 L 112.9375 90.929688 L 113.800781 90.929688 C 114.394531 90.929688 114.941406 91.339844 114.941406 91.75 C 114.941406 91.84375 114.941406 92.023438 114.894531 92.296875 C 114.804688 92.296875 114.714844 92.253906 114.621094 92.253906 C 114.121094 92.207031 113.664062 92.570312 113.621094 93.074219 C 113.574219 93.574219 113.9375 94.027344 114.441406 94.074219 C 114.804688 94.121094 114.988281 94.394531 115.03125 94.4375 C 115.078125 95.03125 115.03125 95.488281 114.894531 95.714844 Z M 114.894531 95.714844 " fill-opacity="1" fill-rule="nonzero"/><path fill="#2d4356" d="M 97.171875 73.4375 L 95.441406 73.4375 L 95.03125 72.933594 C 94.847656 72.707031 94.574219 72.570312 94.300781 72.570312 L 92.890625 72.570312 C 92.617188 72.570312 92.34375 72.707031 92.160156 72.933594 L 91.796875 73.4375 L 90.066406 73.4375 C 89.109375 73.4375 88.378906 74.210938 88.378906 75.167969 L 88.378906 79.359375 C 88.378906 80.316406 89.152344 81.089844 90.066406 81.089844 L 97.128906 81.089844 C 98.085938 81.089844 98.8125 80.316406 98.8125 79.359375 L 98.8125 75.167969 C 98.859375 74.210938 98.085938 73.4375 97.171875 73.4375 Z M 97.035156 79.222656 L 90.203125 79.222656 L 90.203125 75.210938 L 92.253906 75.210938 C 92.527344 75.210938 92.800781 75.074219 92.980469 74.847656 L 93.390625 74.347656 L 93.894531 74.347656 L 94.300781 74.847656 C 94.484375 75.074219 94.757812 75.210938 95.03125 75.210938 L 97.082031 75.210938 L 97.082031 79.222656 Z M 97.035156 79.222656 " fill-opacity="1" fill-rule="nonzero"/><g clip-path="url(#d6053552ac)"><path fill="#2d4356" d="M 122.503906 93.027344 L 111.113281 81.636719 C 110.75 81.273438 110.203125 81.273438 109.839844 81.636719 L 98.675781 92.753906 L 97.265625 91.339844 L 107.605469 81 C 107.972656 80.632812 107.972656 80.085938 107.605469 79.722656 C 107.242188 79.359375 106.695312 79.359375 106.332031 79.722656 L 95.941406 90.019531 L 94.53125 88.609375 L 105.691406 77.445312 C 106.058594 77.082031 106.058594 76.535156 105.691406 76.167969 L 94.300781 64.777344 C 93.9375 64.414062 93.390625 64.414062 93.027344 64.777344 L 81.636719 76.167969 C 81.273438 76.535156 81.273438 77.082031 81.636719 77.445312 L 92.707031 88.609375 L 91.296875 90.019531 L 80.953125 79.675781 C 80.589844 79.3125 80.042969 79.3125 79.675781 79.675781 C 79.3125 80.042969 79.3125 80.589844 79.675781 80.953125 L 89.972656 91.339844 L 88.5625 92.753906 L 77.398438 81.636719 C 77.035156 81.273438 76.488281 81.273438 76.125 81.636719 L 64.734375 93.027344 C 64.371094 93.390625 64.371094 93.9375 64.734375 94.300781 L 76.125 105.691406 C 76.304688 105.875 76.535156 105.964844 76.761719 105.964844 C 76.988281 105.964844 77.21875 105.875 77.398438 105.691406 L 88.5625 94.574219 L 90.019531 96.035156 L 79.632812 106.332031 C 79.269531 106.695312 79.269531 107.242188 79.632812 107.605469 C 79.8125 107.789062 80.042969 107.878906 80.269531 107.878906 C 80.496094 107.878906 80.726562 107.789062 80.90625 107.605469 L 91.296875 97.308594 L 92.753906 98.765625 L 81.589844 109.882812 C 81.226562 110.25 81.226562 110.796875 81.589844 111.160156 L 92.980469 122.550781 C 93.164062 122.734375 93.390625 122.824219 93.621094 122.824219 C 93.847656 122.824219 94.074219 122.734375 94.257812 122.550781 L 105.648438 111.160156 C 106.011719 110.796875 106.011719 110.25 105.648438 109.882812 L 94.53125 98.722656 L 95.988281 97.265625 L 106.332031 107.605469 C 106.511719 107.789062 106.742188 107.878906 106.96875 107.878906 C 107.195312 107.878906 107.425781 107.789062 107.605469 107.605469 C 107.972656 107.242188 107.972656 106.695312 107.605469 106.332031 L 97.265625 95.988281 L 98.722656 94.53125 L 109.882812 105.691406 C 110.066406 105.875 110.292969 105.964844 110.523438 105.964844 C 110.75 105.964844 110.976562 105.875 111.160156 105.691406 L 122.550781 94.300781 C 122.871094 93.9375 122.871094 93.390625 122.503906 93.027344 Z M 76.761719 103.777344 L 66.648438 93.664062 L 76.761719 83.550781 L 86.875 93.664062 Z M 83.503906 76.808594 L 93.621094 66.691406 L 103.734375 76.808594 L 93.621094 86.921875 Z M 103.734375 110.523438 L 93.621094 120.636719 L 83.503906 110.523438 L 93.621094 100.40625 Z M 93.621094 97.035156 L 90.246094 93.664062 L 93.621094 90.292969 L 96.992188 93.664062 Z M 110.476562 103.777344 L 100.363281 93.664062 L 110.476562 83.550781 L 120.589844 93.664062 Z M 110.476562 103.777344 " fill-opacity="1" fill-rule="nonzero"/></g></svg>