<svg xmlns="http://www.w3.org/2000/svg" xmlns:xlink="http://www.w3.org/1999/xlink" width="250" zoomAndPan="magnify" viewBox="0 0 187.5 187.499992" height="250" preserveAspectRatio="xMidYMid meet" version="1.0"><defs><clipPath id="844eea8460"><path d="M 0 0 L 187 0 L 187 187 L 0 187 Z M 0 0 " clip-rule="nonzero"/></clipPath><clipPath id="82707dfcce"><path d="M 71.894531 73 L 115.394531 73 L 115.394531 90 L 71.894531 90 Z M 71.894531 73 " clip-rule="nonzero"/></clipPath><clipPath id="d754fa7acc"><path d="M 100 62.371094 L 104 62.371094 L 104 67 L 100 67 Z M 100 62.371094 " clip-rule="nonzero"/></clipPath></defs><g clip-path="url(#844eea8460)"><path fill="#ffffff" d="M 0 0 L 187.5 0 L 187.5 195 L 0 195 Z M 0 0 " fill-opacity="1" fill-rule="nonzero"/><path fill="#ffffff" d="M 0 0 L 187.5 0 L 187.5 187.5 L 0 187.5 Z M 0 0 " fill-opacity="1" fill-rule="nonzero"/><path fill="#ffffff" d="M 0 0 L 187.5 0 L 187.5 187.5 L 0 187.5 Z M 0 0 " fill-opacity="1" fill-rule="nonzero"/></g><g clip-path="url(#82707dfcce)"><path fill="#005162" d="M 115.394531 81.9375 C 115.394531 84.183594 113.054688 86.242188 108.800781 87.726562 C 104.742188 89.144531 99.359375 89.925781 93.644531 89.925781 C 87.929688 89.925781 82.546875 89.144531 78.488281 87.726562 C 74.234375 86.242188 71.894531 84.183594 71.894531 81.9375 C 71.894531 79.691406 74.234375 77.632812 78.488281 76.148438 C 82.546875 74.730469 87.929688 73.949219 93.644531 73.949219 C 99.359375 73.949219 104.742188 74.730469 108.800781 76.148438 C 113.054688 77.632812 115.394531 79.691406 115.394531 81.9375 Z M 73.078125 81.9375 C 73.078125 85.21875 81.34375 88.730469 93.644531 88.730469 C 105.945312 88.730469 114.210938 85.21875 114.210938 81.9375 C 114.210938 78.65625 105.945312 75.144531 93.644531 75.144531 C 81.34375 75.144531 73.078125 78.65625 73.078125 81.9375 Z M 73.078125 81.9375 " fill-opacity="1" fill-rule="nonzero"/></g><path fill="#005162" d="M 107.570312 95.75 C 107.570312 97.800781 106.972656 99.292969 105.839844 100.066406 C 103.988281 101.324219 100.984375 100.523438 97.378906 97.8125 C 93.9375 95.226562 90.277344 91.179688 87.074219 86.414062 C 82.535156 79.671875 79.71875 72.664062 79.71875 68.125 C 79.71875 66.074219 80.316406 64.582031 81.449219 63.8125 C 83.300781 62.550781 86.304688 63.351562 89.910156 66.0625 C 93.351562 68.648438 97.011719 72.695312 100.214844 77.460938 C 104.75 84.203125 107.570312 91.210938 107.570312 95.75 Z M 80.90625 68.125 C 80.90625 72.4375 83.644531 79.191406 88.054688 85.746094 C 94.949219 95.996094 102.472656 100.914062 105.171875 99.078125 C 106.171875 98.394531 106.382812 96.890625 106.382812 95.75 C 106.382812 91.4375 103.644531 84.683594 99.234375 78.128906 C 96.101562 73.472656 92.539062 69.527344 89.203125 67.019531 C 86.078125 64.667969 83.496094 63.859375 82.117188 64.800781 C 81.117188 65.480469 80.90625 66.984375 80.90625 68.125 Z M 80.90625 68.125 " fill-opacity="1" fill-rule="nonzero"/><path fill="#005162" d="M 107.566406 68.140625 C 107.566406 69.40625 107.347656 70.886719 106.90625 72.554688 C 105.796875 76.726562 103.421875 81.652344 100.214844 86.414062 C 98.699219 88.667969 97.078125 90.769531 95.394531 92.660156 C 95.175781 92.902344 94.800781 92.925781 94.558594 92.703125 C 94.3125 92.484375 94.292969 92.105469 94.511719 91.863281 C 96.160156 90.011719 97.746094 87.957031 99.234375 85.746094 C 102.367188 81.089844 104.683594 76.292969 105.757812 72.246094 C 106.765625 68.453125 106.550781 65.738281 105.171875 64.800781 C 103.796875 63.859375 101.210938 64.667969 98.085938 67.019531 C 94.75 69.527344 91.1875 73.472656 88.054688 78.128906 C 81.160156 88.382812 79.417969 97.238281 82.117188 99.078125 C 83.328125 99.902344 85.457031 99.386719 88.113281 97.628906 C 88.386719 97.449219 88.753906 97.523438 88.933594 97.800781 C 89.113281 98.074219 89.039062 98.445312 88.765625 98.625 C 85.636719 100.699219 83.109375 101.195312 81.449219 100.066406 C 79.601562 98.804688 79.222656 95.699219 80.386719 91.324219 C 81.492188 87.148438 83.867188 82.222656 87.074219 77.460938 C 90.277344 72.695312 93.9375 68.648438 97.378906 66.0625 C 100.984375 63.351562 103.988281 62.550781 105.839844 63.8125 C 106.984375 64.589844 107.566406 66.082031 107.566406 68.140625 Z M 107.566406 68.140625 " fill-opacity="1" fill-rule="nonzero"/><path fill="#5ce1e6" d="M 93.644531 76.753906 C 93.984375 76.753906 94.316406 76.789062 94.648438 76.855469 C 94.980469 76.921875 95.304688 77.019531 95.613281 77.148438 C 95.925781 77.28125 96.222656 77.4375 96.503906 77.628906 C 96.785156 77.816406 97.046875 78.03125 97.285156 78.273438 C 97.523438 78.511719 97.738281 78.773438 97.925781 79.058594 C 98.113281 79.339844 98.273438 79.640625 98.402344 79.953125 C 98.53125 80.269531 98.628906 80.59375 98.695312 80.925781 C 98.761719 81.261719 98.792969 81.597656 98.792969 81.9375 C 98.792969 82.277344 98.761719 82.613281 98.695312 82.949219 C 98.628906 83.28125 98.53125 83.605469 98.402344 83.921875 C 98.273438 84.234375 98.113281 84.535156 97.925781 84.816406 C 97.738281 85.097656 97.523438 85.363281 97.285156 85.601562 C 97.046875 85.84375 96.785156 86.058594 96.503906 86.246094 C 96.222656 86.433594 95.925781 86.59375 95.613281 86.726562 C 95.304688 86.855469 94.980469 86.953125 94.648438 87.019531 C 94.316406 87.085938 93.984375 87.121094 93.644531 87.121094 C 93.304688 87.121094 92.972656 87.085938 92.640625 87.019531 C 92.308594 86.953125 91.984375 86.855469 91.675781 86.726562 C 91.363281 86.59375 91.066406 86.433594 90.785156 86.246094 C 90.503906 86.058594 90.242188 85.84375 90.003906 85.601562 C 89.765625 85.363281 89.550781 85.097656 89.363281 84.816406 C 89.175781 84.535156 89.015625 84.234375 88.886719 83.921875 C 88.757812 83.605469 88.660156 83.28125 88.59375 82.949219 C 88.527344 82.613281 88.496094 82.277344 88.496094 81.9375 C 88.496094 81.597656 88.527344 81.261719 88.59375 80.925781 C 88.660156 80.59375 88.757812 80.269531 88.886719 79.953125 C 89.015625 79.640625 89.175781 79.339844 89.363281 79.058594 C 89.550781 78.773438 89.765625 78.511719 90.003906 78.273438 C 90.242188 78.03125 90.503906 77.816406 90.785156 77.628906 C 91.066406 77.4375 91.363281 77.28125 91.675781 77.148438 C 91.984375 77.019531 92.308594 76.921875 92.640625 76.855469 C 92.972656 76.789062 93.304688 76.753906 93.644531 76.753906 Z M 93.644531 76.753906 " fill-opacity="1" fill-rule="nonzero"/><path fill="#5ce1e6" d="M 75.578125 84.035156 C 75.824219 84.035156 76.066406 84.082031 76.292969 84.179688 C 76.523438 84.273438 76.726562 84.410156 76.902344 84.585938 C 77.078125 84.761719 77.214844 84.96875 77.308594 85.199219 C 77.402344 85.429688 77.449219 85.667969 77.449219 85.917969 C 77.449219 86.167969 77.402344 86.410156 77.308594 86.640625 C 77.214844 86.871094 77.078125 87.074219 76.902344 87.253906 C 76.726562 87.429688 76.523438 87.566406 76.292969 87.660156 C 76.066406 87.757812 75.824219 87.804688 75.578125 87.804688 C 75.328125 87.804688 75.089844 87.757812 74.859375 87.660156 C 74.632812 87.566406 74.429688 87.429688 74.253906 87.253906 C 74.078125 87.074219 73.941406 86.871094 73.847656 86.640625 C 73.753906 86.410156 73.703125 86.167969 73.703125 85.917969 C 73.703125 85.667969 73.753906 85.429688 73.847656 85.199219 C 73.941406 84.96875 74.078125 84.761719 74.253906 84.585938 C 74.429688 84.410156 74.632812 84.273438 74.859375 84.179688 C 75.089844 84.082031 75.328125 84.035156 75.578125 84.035156 Z M 75.578125 84.035156 " fill-opacity="1" fill-rule="nonzero"/><g clip-path="url(#d754fa7acc)"><path fill="#5ce1e6" d="M 101.917969 62.40625 C 102.164062 62.40625 102.402344 62.453125 102.632812 62.550781 C 102.863281 62.644531 103.066406 62.78125 103.242188 62.960938 C 103.414062 63.136719 103.550781 63.339844 103.644531 63.570312 C 103.742188 63.800781 103.789062 64.042969 103.789062 64.292969 C 103.789062 64.542969 103.742188 64.78125 103.644531 65.011719 C 103.550781 65.242188 103.414062 65.449219 103.242188 65.625 C 103.066406 65.800781 102.863281 65.9375 102.632812 66.03125 C 102.402344 66.128906 102.164062 66.175781 101.917969 66.175781 C 101.667969 66.175781 101.429688 66.128906 101.199219 66.03125 C 100.96875 65.9375 100.765625 65.800781 100.589844 65.625 C 100.417969 65.449219 100.28125 65.242188 100.1875 65.011719 C 100.089844 64.78125 100.042969 64.542969 100.042969 64.292969 C 100.042969 64.042969 100.089844 63.800781 100.1875 63.570312 C 100.28125 63.339844 100.417969 63.136719 100.589844 62.960938 C 100.765625 62.78125 100.96875 62.644531 101.199219 62.550781 C 101.429688 62.453125 101.667969 62.40625 101.917969 62.40625 Z M 101.917969 62.40625 " fill-opacity="1" fill-rule="nonzero"/></g><path fill="#5ce1e6" d="M 106.5625 93.804688 C 106.8125 93.804688 107.050781 93.851562 107.277344 93.949219 C 107.507812 94.042969 107.710938 94.179688 107.886719 94.355469 C 108.0625 94.535156 108.199219 94.738281 108.292969 94.96875 C 108.386719 95.199219 108.433594 95.441406 108.433594 95.6875 C 108.433594 95.9375 108.386719 96.179688 108.292969 96.410156 C 108.199219 96.640625 108.0625 96.84375 107.886719 97.023438 C 107.710938 97.199219 107.507812 97.335938 107.277344 97.429688 C 107.050781 97.527344 106.8125 97.574219 106.5625 97.574219 C 106.3125 97.574219 106.074219 97.527344 105.847656 97.429688 C 105.617188 97.335938 105.414062 97.199219 105.238281 97.023438 C 105.0625 96.84375 104.925781 96.640625 104.832031 96.410156 C 104.738281 96.179688 104.691406 95.9375 104.691406 95.6875 C 104.691406 95.441406 104.738281 95.199219 104.832031 94.96875 C 104.925781 94.738281 105.0625 94.535156 105.238281 94.355469 C 105.414062 94.179688 105.617188 94.042969 105.847656 93.949219 C 106.074219 93.851562 106.3125 93.804688 106.5625 93.804688 Z M 106.5625 93.804688 " fill-opacity="1" fill-rule="nonzero"/></svg>