<svg xmlns="http://www.w3.org/2000/svg" xmlns:xlink="http://www.w3.org/1999/xlink" width="250" zoomAndPan="magnify" viewBox="0 0 187.5 187.499992" height="250" preserveAspectRatio="xMidYMid meet" version="1.0"><defs><clipPath id="19ea2f86d8"><path d="M 100 84 L 113.847656 84 L 113.847656 96 L 100 96 Z M 100 84 " clip-rule="nonzero"/></clipPath><clipPath id="7081478d00"><path d="M 73.347656 90 L 98 90 L 98 111.867188 L 73.347656 111.867188 Z M 73.347656 90 " clip-rule="nonzero"/></clipPath></defs><path stroke-linecap="butt" transform="matrix(0.0855725, 0, 0, 0.0868097, 71.685146, 72.005638)" fill="none" stroke-linejoin="miter" d="M 181.251703 52.762508 C 199.693661 44.572902 220.098502 50.197631 237.536195 58.792217 C 257.028068 68.961728 276.930775 83.766014 284.873599 106.984896 C 288.479824 116.479439 286.106106 127.503908 279.989219 134.973548 C 275.104839 139.563327 268.257577 138.25839 262.41458 137.62842 C 249.267837 134.478572 241.188068 121.4292 230.962824 112.92461 C 222.061384 104.240028 212.612162 94.835481 200.60663 92.405598 C 189.879253 90.425694 180.566976 98.345312 173.719715 106.48992 C 163.357525 120.709235 156.829802 137.718416 151.762828 154.952586 C 148.430494 169.936864 141.400638 184.246175 142.267958 200.085412 C 141.263693 185.461116 137.520523 171.286799 137.155336 156.572508 C 136.47061 137.673418 138.616085 118.639335 142.907036 100.325217 C 150.758563 80.706162 162.855392 61.312096 181.251703 52.762508 Z M 181.251703 52.762508 " stroke="#000000" stroke-width="0.1" stroke-opacity="1" stroke-miterlimit="10"/><path fill="#006c80" d="M 87.195312 76.585938 C 88.773438 75.875 90.519531 76.363281 92.011719 77.109375 C 93.679688 77.992188 95.382812 79.277344 96.0625 81.292969 C 96.371094 82.117188 96.167969 83.074219 95.644531 83.722656 C 95.226562 84.121094 94.640625 84.007812 94.140625 83.953125 C 93.015625 83.679688 92.324219 82.546875 91.449219 81.808594 C 90.6875 81.054688 89.878906 80.238281 88.851562 80.027344 C 87.933594 79.855469 87.136719 80.542969 86.550781 81.25 C 85.664062 82.484375 85.105469 83.960938 84.671875 85.457031 C 84.386719 86.757812 83.785156 88 83.859375 89.375 C 83.773438 88.105469 83.453125 86.875 83.421875 85.597656 C 83.363281 83.957031 83.546875 82.304688 83.914062 80.714844 C 84.585938 79.011719 85.621094 77.328125 87.195312 76.585938 Z M 87.195312 76.585938 " fill-opacity="1" fill-rule="nonzero"/><path stroke-linecap="butt" transform="matrix(0.0855725, 0, 0, 0.0868097, 71.685146, 72.005638)" fill="none" stroke-linejoin="miter" d="M 349.466103 65.271905 C 362.79544 63.561988 376.855151 69.411706 385.80224 80.571168 C 391.873478 88.895767 395.981836 99.380262 395.890539 110.22474 C 394.70368 123.364107 388.769386 136.368481 378.818032 143.973114 C 367.08639 153.19767 351.063798 155.132577 337.871406 148.697887 C 318.288237 140.418286 306.876134 112.384636 316.964433 91.190657 C 322.624837 76.79135 335.680283 67.386803 349.466103 65.271905 Z M 349.466103 65.271905 " stroke="#000000" stroke-width="0.1" stroke-opacity="1" stroke-miterlimit="10"/><path fill="#006c80" d="M 101.589844 77.671875 C 102.730469 77.523438 103.933594 78.03125 104.699219 79 C 105.21875 79.722656 105.570312 80.632812 105.5625 81.574219 C 105.460938 82.714844 104.953125 83.84375 104.101562 84.503906 C 103.097656 85.304688 101.726562 85.472656 100.597656 84.914062 C 98.921875 84.195312 97.945312 81.761719 98.808594 79.921875 C 99.292969 78.671875 100.410156 77.855469 101.589844 77.671875 Z M 101.589844 77.671875 " fill-opacity="1" fill-rule="nonzero"/><g clip-path="url(#19ea2f86d8)"><path stroke-linecap="butt" transform="matrix(0.0855725, 0, 0, 0.0868097, 71.685146, 72.005638)" fill="none" stroke-linejoin="miter" d="M 488.46552 141.813218 C 489.241543 141.768221 490.063214 141.768221 490.884885 141.768221 C 490.519698 149.597843 492.345635 157.382469 491.204424 165.167094 C 489.332839 178.53145 484.494108 191.085845 479.24454 203.23526 C 467.74114 231.808884 445.921199 255.387748 419.490768 266.502212 C 407.393939 271.271983 392.96904 270.912 382.05907 262.767392 C 364.393134 249.94301 350.470368 230.368953 344.399129 207.780041 C 340.564663 195.585628 340.427717 180.916335 347.046737 169.891866 C 350.333423 165.0321 354.806967 159.63236 360.786909 159.992343 C 366.949445 160.622312 372.472903 164.717115 376.216073 170.116855 C 385.026217 182.941237 386.852153 199.590435 394.064602 213.314774 C 400.135841 222.13435 409.95025 232.618845 420.768924 227.444094 C 433.82437 221.324389 444.825637 210.884891 455.416069 200.625386 C 468.836702 187.801003 478.194627 170.701827 485.635318 153.062677 C 487.141716 149.507848 488.191629 145.72803 488.46552 141.813218 Z M 488.46552 141.813218 " stroke="#000000" stroke-width="0.1" stroke-opacity="1" stroke-miterlimit="10"/><path fill="#006c80" d="M 113.484375 84.316406 C 113.550781 84.3125 113.621094 84.3125 113.691406 84.3125 C 113.660156 84.992188 113.816406 85.667969 113.71875 86.34375 C 113.558594 87.503906 113.144531 88.59375 112.695312 89.648438 C 111.710938 92.128906 109.84375 94.175781 107.582031 95.140625 C 106.546875 95.554688 105.3125 95.523438 104.378906 94.816406 C 102.867188 93.703125 101.675781 92.003906 101.15625 90.042969 C 100.828125 88.984375 100.816406 87.710938 101.382812 86.753906 C 101.664062 86.332031 102.046875 85.863281 102.558594 85.894531 C 103.085938 85.949219 103.558594 86.304688 103.878906 86.773438 C 104.632812 87.886719 104.789062 89.332031 105.40625 90.523438 C 105.925781 91.289062 106.765625 92.199219 107.691406 91.75 C 108.808594 91.21875 109.75 90.3125 110.65625 89.421875 C 111.804688 88.308594 112.605469 86.824219 113.242188 85.292969 C 113.371094 84.984375 113.460938 84.65625 113.484375 84.316406 Z M 113.484375 84.316406 " fill-opacity="1" fill-rule="nonzero"/></g><g clip-path="url(#7081478d00)"><path stroke-linecap="butt" transform="matrix(0.0855725, 0, 0, 0.0868097, 71.685146, 72.005638)" fill="none" stroke-linejoin="miter" d="M 162.398908 223.799269 C 170.159138 216.50962 181.61689 217.229586 190.655276 220.87441 C 199.73931 225.149204 209.279828 228.479044 217.542191 234.553751 C 230.415043 243.733309 242.694466 253.992815 253.695733 265.782247 C 266.112102 276.94171 277.66115 289.406109 287.521207 303.400435 C 294.824953 312.939976 302.448238 324.05444 301.900457 337.283803 C 296.468296 356.542875 281.632562 370.627197 266.203399 380.031744 C 245.75291 391.596187 222.928703 396.185966 201.063114 403.295623 C 191.568244 406.670461 181.662538 407.9304 171.802481 409.100344 C 160.664269 409.775311 149.480408 412.340188 138.342195 410.135294 C 145.463347 404.375571 154.090897 401.810695 161.942424 397.535901 C 184.447092 386.736421 205.673603 372.877089 227.584841 360.727674 C 236.897118 355.732914 245.981152 349.343222 251.322016 339.173712 C 251.002477 336.92382 250.728587 334.718927 250.500345 332.469035 C 244.246512 325.449373 236.53193 320.409616 228.589107 316.17982 C 219.322479 324.68441 208.595102 331.164098 200.058849 340.65864 C 176.641213 360.097704 150.712915 375.306971 125.743233 392.091163 C 92.146001 413.060153 60.374706 437.538974 26.092748 457.293022 C 24.129866 458.102983 22.075688 458.732953 19.975861 459.182931 C 33.122604 443.253699 48.46047 429.664353 61.378971 413.510131 C 80.09482 391.776178 98.765021 369.997227 118.256893 349.118233 C 138.844327 327.069295 158.838332 304.390387 177.919369 280.721527 C 169.885248 272.441926 159.47741 264.837293 157.058044 252.147904 C 154.729975 242.563366 156.099427 231.223912 162.398908 223.799269 Z M 162.398908 223.799269 " stroke="#000000" stroke-width="0.1" stroke-opacity="1" stroke-miterlimit="10"/><path fill="#006c80" d="M 85.582031 91.433594 C 86.246094 90.800781 87.226562 90.863281 88 91.179688 C 88.777344 91.550781 89.59375 91.839844 90.300781 92.367188 C 91.402344 93.164062 92.453125 94.054688 93.394531 95.078125 C 94.457031 96.046875 95.445312 97.128906 96.289062 98.34375 C 96.914062 99.171875 97.566406 100.136719 97.519531 101.285156 C 97.054688 102.957031 95.785156 104.179688 94.464844 104.996094 C 92.714844 106 90.761719 106.398438 88.890625 107.015625 C 88.078125 107.308594 87.230469 107.417969 86.386719 107.519531 C 85.433594 107.578125 84.476562 107.800781 83.523438 107.609375 C 84.132812 107.109375 84.871094 106.886719 85.542969 106.515625 C 87.46875 105.578125 89.285156 104.375 91.160156 103.320312 C 91.957031 102.886719 92.734375 102.332031 93.191406 101.449219 C 93.164062 101.253906 93.140625 101.0625 93.121094 100.867188 C 92.585938 100.257812 91.925781 99.820312 91.246094 99.453125 C 90.453125 100.191406 89.535156 100.753906 88.804688 101.578125 C 86.800781 103.265625 84.582031 104.585938 82.445312 106.042969 C 79.570312 107.863281 76.851562 109.988281 73.917969 111.703125 C 73.75 111.773438 73.574219 111.828125 73.394531 111.867188 C 74.519531 110.484375 75.832031 109.304688 76.9375 107.902344 C 78.539062 106.015625 80.136719 104.125 81.804688 102.3125 C 83.566406 100.398438 85.277344 98.429688 86.910156 96.375 C 86.222656 95.65625 85.332031 94.996094 85.125 93.894531 C 84.925781 93.0625 85.042969 92.078125 85.582031 91.433594 Z M 85.582031 91.433594 " fill-opacity="1" fill-rule="nonzero"/></g></svg>